<svg width="32" height="32" viewBox="0 0 32 32" fill="none" xmlns="http://www.w3.org/2000/svg">
<g clip-path="url(#clip0_28_210)">
<path d="M5.67002 0C2.52902 0 0 2.52902 0 5.67002V26.33C0 29.471 2.52902 32 5.67002 32H20.876L32 16.004L20.876 3.2e-05H5.67002V0ZM14.185 5.84202H17.798C18.0198 5.84202 18.147 5.92314 18.147 6.11402V26.026C18.147 26.1615 18.0832 26.243 17.893 26.243H15.928C15.8021 26.243 15.707 26.1343 15.707 26.053V18.681H14.121L9.716 26.053C9.65277 26.1886 9.52618 26.243 9.336 26.243H7.08598C6.83318 26.243 6.67466 26.053 6.83299 25.808L11.681 18.3C9.08301 17.3207 7.62499 15.335 7.62499 12.642C7.62499 8.15354 10.6359 5.84198 14.185 5.84198L14.185 5.84202ZM14.09 7.58202C12.1568 7.58202 10.255 8.96928 10.255 12.37C10.255 15.6344 12.2835 16.94 14.375 16.94H15.707V7.58202H14.09Z" fill="#F24E1E"/>
</g>
<defs>
<clipPath id="clip0_28_210">
<rect width="32" height="32" fill="white"/>
</clipPath>
</defs>
</svg>
