<svg width="325" height="117" viewBox="0 0 325 117" fill="none" xmlns="http://www.w3.org/2000/svg">
<g filter="url(#filter0_d_66_571)">
<mask id="path-1-inside-1_66_571" fill="white">
<path fill-rule="evenodd" clip-rule="evenodd" d="M325 109C325 113.418 321.418 117 317 117L246.781 117C246.783 116.911 246.784 116.823 246.784 116.734C246.784 110.7 241.549 105.809 235.091 105.809C228.633 105.809 223.398 110.7 223.398 116.734C223.398 116.823 223.399 116.911 223.401 117L8 117C3.58173 117 1.56562e-07 113.418 3.49691e-07 109L4.76454e-06 8C4.95767e-06 3.58173 3.58173 1.20915e-06 8.00001 1.40228e-06L223.409 1.08181e-05C223.402 0.161029 223.398 0.322948 223.398 0.485698C223.398 6.51897 228.633 11.4099 235.091 11.4099C241.549 11.4099 246.784 6.51897 246.784 0.485699C246.784 0.322949 246.781 0.16103 246.773 1.18394e-05L317 1.49091e-05C321.418 1.51022e-05 325 3.58173 325 8.00002L325 109ZM278.614 58.9242C278.614 52.8909 283.849 48 290.307 48C296.765 48 302 52.8909 302 58.9242C302 64.9575 296.765 69.8484 290.307 69.8484C283.849 69.8484 278.614 64.9575 278.614 58.9242Z"/>
</mask>
<path fill-rule="evenodd" clip-rule="evenodd" d="M325 109C325 113.418 321.418 117 317 117L246.781 117C246.783 116.911 246.784 116.823 246.784 116.734C246.784 110.7 241.549 105.809 235.091 105.809C228.633 105.809 223.398 110.7 223.398 116.734C223.398 116.823 223.399 116.911 223.401 117L8 117C3.58173 117 1.56562e-07 113.418 3.49691e-07 109L4.76454e-06 8C4.95767e-06 3.58173 3.58173 1.20915e-06 8.00001 1.40228e-06L223.409 1.08181e-05C223.402 0.161029 223.398 0.322948 223.398 0.485698C223.398 6.51897 228.633 11.4099 235.091 11.4099C241.549 11.4099 246.784 6.51897 246.784 0.485699C246.784 0.322949 246.781 0.16103 246.773 1.18394e-05L317 1.49091e-05C321.418 1.51022e-05 325 3.58173 325 8.00002L325 109ZM278.614 58.9242C278.614 52.8909 283.849 48 290.307 48C296.765 48 302 52.8909 302 58.9242C302 64.9575 296.765 69.8484 290.307 69.8484C283.849 69.8484 278.614 64.9575 278.614 58.9242Z" fill="white"/>
<path d="M325 109L326 109L325 109ZM246.781 117L246.781 118L245.755 118L245.781 116.974L246.781 117ZM223.401 117L224.401 116.974L224.427 118L223.401 118L223.401 117ZM223.409 1.08181e-05L223.409 -0.999989L224.457 -0.999989L224.408 0.0467714L223.409 1.08181e-05ZM246.773 1.18394e-05L245.774 0.0467724L245.725 -0.999988L246.773 -0.999988L246.773 1.18394e-05ZM325 8.00002L324 8.00002L325 8.00002ZM317 116C320.866 116 324 112.866 324 109L326 109C326 113.971 321.971 118 317 118L317 116ZM246.781 116L317 116L317 118L246.781 118L246.781 116ZM247.784 116.734C247.784 116.831 247.783 116.929 247.781 117.026L245.781 116.974C245.783 116.894 245.784 116.814 245.784 116.734L247.784 116.734ZM235.091 104.809C242.036 104.809 247.784 110.085 247.784 116.734L245.784 116.734C245.784 111.316 241.062 106.809 235.091 106.809L235.091 104.809ZM222.398 116.734C222.398 110.085 228.146 104.809 235.091 104.809L235.091 106.809C229.12 106.809 224.398 111.316 224.398 116.734L222.398 116.734ZM222.402 117.026C222.399 116.929 222.398 116.831 222.398 116.734L224.398 116.734C224.398 116.814 224.399 116.894 224.401 116.974L222.402 117.026ZM8 116L223.401 116L223.401 118L8 118L8 116ZM1 109C1 112.866 4.134 116 8 116L8 118C3.02945 118 -1 113.971 -1 109L1 109ZM1 8L1 109L-1 109L-0.999995 8L1 8ZM8.00001 1C4.13401 1 1 4.13401 1 8L-0.999995 8C-0.999995 3.02944 3.02945 -0.999999 8.00001 -0.999999L8.00001 1ZM223.409 1.00001L8.00001 1L8.00001 -0.999999L223.409 -0.999989L223.409 1.00001ZM222.398 0.485698C222.398 0.307315 222.402 0.12981 222.41 -0.0467498L224.408 0.0467714C224.401 0.192249 224.398 0.338581 224.398 0.485698L222.398 0.485698ZM235.091 12.4099C228.146 12.4099 222.398 7.13424 222.398 0.485698L224.398 0.485698C224.398 5.9037 229.12 10.4099 235.091 10.4099L235.091 12.4099ZM247.784 0.485699C247.784 7.13424 242.036 12.4099 235.091 12.4099L235.091 10.4099C241.062 10.4099 245.784 5.9037 245.784 0.485699L247.784 0.485699ZM247.772 -0.0467487C247.78 0.129811 247.784 0.307316 247.784 0.485699L245.784 0.485699C245.784 0.338581 245.781 0.19225 245.774 0.0467724L247.772 -0.0467487ZM317 1.00001L246.773 1.00001L246.773 -0.999988L317 -0.999985L317 1.00001ZM324 8.00002C324 4.13402 320.866 1.00002 317 1.00001L317 -0.999985C321.971 -0.999985 326 3.02945 326 8.00002L324 8.00002ZM324 109L324 8.00002L326 8.00002L326 109L324 109ZM290.307 49C284.336 49 279.614 53.5062 279.614 58.9242L277.614 58.9242C277.614 52.2757 283.362 47 290.307 47L290.307 49ZM301 58.9242C301 53.5062 296.278 49 290.307 49L290.307 47C297.252 47 303 52.2757 303 58.9242L301 58.9242ZM290.307 68.8484C296.278 68.8484 301 64.3422 301 58.9242L303 58.9242C303 65.5728 297.252 70.8484 290.307 70.8484L290.307 68.8484ZM279.614 58.9242C279.614 64.3422 284.336 68.8484 290.307 68.8484L290.307 70.8484C283.362 70.8484 277.614 65.5728 277.614 58.9242L279.614 58.9242Z" fill="#ECEFF1" mask="url(#path-1-inside-1_66_571)"/>
</g>
<path d="M234 106L237 104.12L234 102.24L237 100.36L234 98.4801L237 96.6001L234 94.7201L237 92.8401L234 90.9601L237 89.0801L234 87.2001L237 85.3201L234 83.4401L237 81.5601L234 79.6801L237 77.8001L234 75.9201L237 74.0401L234 72.1601L237 70.2801L234 68.4001L237 66.5201L234 64.6401L237 62.7601L234 60.8801L237 59.0001L234 57.1201L237 55.2401L234 53.3601L237 51.4801L234 49.6001L237 47.7201L234 45.8401L237 43.9601L234 42.0801L237 40.2001L234 38.3201L237 36.4401L234 34.5601L237 32.6801L234 30.8001L237 28.9201L234 27.0401L237 25.1601L234 23.2801L237 21.4001L234 19.5201L237 17.6401L234 15.7601L237 13.8801L234 12.0001" stroke="#546E7A" stroke-width="0.5"/>
<defs>
<filter id="filter0_d_66_571" x="-2" y="-2" width="337" height="129" filterUnits="userSpaceOnUse" color-interpolation-filters="sRGB">
<feFlood flood-opacity="0" result="BackgroundImageFix"/>
<feColorMatrix in="SourceAlpha" type="matrix" values="0 0 0 0 0 0 0 0 0 0 0 0 0 0 0 0 0 0 127 0" result="hardAlpha"/>
<feOffset dx="4" dy="4"/>
<feGaussianBlur stdDeviation="3"/>
<feColorMatrix type="matrix" values="0 0 0 0 0 0 0 0 0 0 0 0 0 0 0 0 0 0 0.2 0"/>
<feBlend mode="normal" in2="BackgroundImageFix" result="effect1_dropShadow_66_571"/>
<feBlend mode="normal" in="SourceGraphic" in2="effect1_dropShadow_66_571" result="shape"/>
</filter>
</defs>
</svg>
