<svg width="191" height="56" viewBox="0 0 191 56" fill="none" xmlns="http://www.w3.org/2000/svg">
<rect x="83" width="108" height="56" rx="10" fill="white"/>
<path d="M142.154 13H132.695C124.055 13 122 15.055 122 23.6791V33.1388C122 41.7768 124.04 43.8333 132.679 43.8333H142.139C150.777 43.8333 152.833 41.7937 152.833 33.1542V23.6945C152.833 15.055 150.794 13 142.154 13ZM146.892 34.9996H144.642C143.791 34.9996 143.536 34.3105 142.009 32.7842C140.677 31.5 140.115 31.3397 139.777 31.3397C139.311 31.3397 139.183 31.4676 139.183 32.1105V34.1332C139.183 34.6805 139.006 35.0011 137.577 35.0011C136.19 34.9079 134.845 34.4865 133.653 33.7717C132.461 33.0569 131.455 32.069 130.72 30.8895C128.973 28.7157 127.758 26.1645 127.171 23.4386C127.171 23.101 127.299 22.7958 127.942 22.7958H130.189C130.767 22.7958 130.976 23.0532 131.202 23.6468C132.294 26.8596 134.156 29.6531 134.911 29.6531C135.201 29.6531 135.328 29.5251 135.328 28.8021V25.4937C135.232 23.9844 134.43 23.8564 134.43 23.3107C134.441 23.1667 134.507 23.0324 134.614 22.9363C134.722 22.8402 134.863 22.7898 135.007 22.7958H138.541C139.023 22.7958 139.183 23.0363 139.183 23.6144V28.079C139.183 28.5616 139.392 28.7219 139.536 28.7219C139.826 28.7219 140.05 28.5616 140.58 28.0313C141.719 26.6421 142.65 25.0945 143.343 23.4371C143.414 23.238 143.548 23.0676 143.724 22.9518C143.901 22.836 144.111 22.7812 144.322 22.7958H146.571C147.245 22.7958 147.388 23.1334 147.245 23.6144C146.427 25.4465 145.415 27.1857 144.226 28.8021C143.984 29.1721 143.887 29.3648 144.226 29.798C144.45 30.1356 145.238 30.7939 145.768 31.4198C146.539 32.1886 147.179 33.078 147.663 34.053C147.855 34.6789 147.533 34.9996 146.892 34.9996Z" fill="#699BF7"/>
</svg>
