<svg width="23" height="23" viewBox="0 0 23 23" fill="none" xmlns="http://www.w3.org/2000/svg">
<g clip-path="url(#clip0_28_218)">
<path d="M8.01226 0.756489C5.71421 1.55371 3.73237 3.06685 2.35784 5.07366C0.983319 7.08048 0.288562 9.47518 0.375623 11.906C0.462683 14.3369 1.32697 16.6758 2.84154 18.5791C4.3561 20.4824 6.44111 21.8499 8.79031 22.4807C10.6949 22.9721 12.6903 22.9937 14.605 22.5436C16.3396 22.154 17.9432 21.3206 19.2589 20.125C20.6283 18.8427 21.6222 17.2113 22.1339 15.4064C22.6899 13.4436 22.7888 11.3795 22.4232 9.3725H11.7282V13.809H17.922C17.7982 14.5166 17.533 15.1919 17.1421 15.7946C16.7512 16.3973 16.2428 16.9149 15.6472 17.3165C14.8909 17.817 14.0383 18.1536 13.1441 18.3048C12.2474 18.4716 11.3276 18.4716 10.4309 18.3048C9.52192 18.1171 8.66209 17.7419 7.90625 17.2033C6.69183 16.3436 5.77996 15.1224 5.30078 13.7138C4.81363 12.2787 4.81363 10.7231 5.30078 9.28805C5.64187 8.28219 6.20575 7.36636 6.95031 6.60891C7.80237 5.72619 8.88111 5.09522 10.0682 4.78522C11.2552 4.47522 12.5047 4.49818 13.6796 4.85157C14.5975 5.13318 15.4368 5.62544 16.1305 6.28907C16.8289 5.59427 17.5261 4.89769 18.2221 4.1993C18.5815 3.82375 18.9732 3.46618 19.3272 3.08164C18.268 2.09609 17.0248 1.32916 15.6687 0.82477C13.1993 -0.071889 10.4973 -0.0959859 8.01226 0.756489Z" fill="white"/>
<path d="M8.01227 0.756477C10.4971 -0.096577 13.1991 -0.0731145 15.6687 0.822961C17.025 1.33078 18.2677 2.1014 19.3254 3.09062C18.966 3.47515 18.5869 3.83452 18.2203 4.20827C17.5231 4.90426 16.8265 5.59786 16.1305 6.28905C15.4368 5.62543 14.5974 5.13317 13.6796 4.85155C12.5051 4.49693 11.2557 4.47264 10.0683 4.78137C8.88091 5.0901 7.80151 5.71992 6.94851 6.60171C6.20395 7.35916 5.64008 8.27499 5.29898 9.28085L1.57406 6.39687C2.90736 3.75288 5.21588 1.73043 8.01227 0.756477Z" fill="#E33629"/>
<path d="M0.585782 9.25391C0.785845 8.26163 1.11824 7.3007 1.57406 6.39688L5.29898 9.28805C4.81183 10.7231 4.81183 12.2787 5.29898 13.7138C4.05794 14.6721 2.8163 15.6352 1.57406 16.6031C0.433318 14.3324 0.0854105 11.7453 0.585782 9.25391Z" fill="#F8BD00"/>
<path d="M11.7282 9.3707H22.4232C22.7888 11.3777 22.6899 13.4418 22.1339 15.4046C21.6222 17.2095 20.6283 18.8409 19.2589 20.1232C18.0568 19.1852 16.8493 18.2544 15.6472 17.3165C16.2432 16.9145 16.7519 16.3963 17.1427 15.793C17.5336 15.1896 17.7987 14.5136 17.922 13.8054H11.7282C11.7264 12.3284 11.7282 10.8495 11.7282 9.3707Z" fill="#587DBD"/>
<path d="M1.57227 16.6031C2.81451 15.6448 4.05615 14.6817 5.29719 13.7137C5.77733 15.1229 6.69049 16.3442 7.90625 17.2033C8.66444 17.7394 9.52613 18.1115 10.4363 18.2958C11.333 18.4626 12.2528 18.4626 13.1495 18.2958C14.0437 18.1446 14.8963 17.808 15.6526 17.3075C16.8547 18.2455 18.0622 19.1762 19.2643 20.1142C17.9488 21.3104 16.3451 22.1445 14.6104 22.5346C12.6957 22.9847 10.7003 22.9632 8.7957 22.4717C7.28939 22.0695 5.88239 21.3605 4.66289 20.3891C3.37225 19.3642 2.31803 18.0728 1.57227 16.6031Z" fill="#319F43"/>
</g>
<defs>
<clipPath id="clip0_28_218">
<rect width="23" height="23" fill="white"/>
</clipPath>
</defs>
</svg>
