<svg width="9" height="15" viewBox="0 0 9 15" fill="none" xmlns="http://www.w3.org/2000/svg">
<path d="M9 7.50423C9 7.35743 8.97348 7.22191 8.92043 7.09768C8.86149 6.97346 8.77308 6.85488 8.65521 6.74195L1.76817 0.287972C1.56778 0.0959911 1.32613 0 1.04322 0C0.848723 0 0.674852 0.0451727 0.521611 0.135517C0.362475 0.220215 0.235757 0.338792 0.141454 0.491248C0.0471516 0.638058 0 0.801806 0 0.982496C0 1.25353 0.109037 1.49351 0.327112 1.70243L6.5334 7.50423L0.327112 13.306C0.109037 13.515 0 13.7521 0 14.0175C0 14.2038 0.0471516 14.3704 0.141454 14.5172C0.235757 14.664 0.362475 14.7798 0.521611 14.8645C0.674852 14.9548 0.848723 15 1.04322 15C1.32613 15 1.56778 14.9068 1.76817 14.7205L8.65521 8.26652C8.77308 8.15359 8.86149 8.03501 8.92043 7.91078C8.97348 7.78656 9 7.65104 9 7.50423Z" fill="white"/>
</svg>
