<svg width="26" height="27" viewBox="0 0 26 27" fill="none" xmlns="http://www.w3.org/2000/svg">
<path fill-rule="evenodd" clip-rule="evenodd" d="M7.04101 24.2687C5.94349 24.2687 5.05468 23.3789 5.05468 22.2824L5.05468 4.00818C5.05468 2.91172 5.94455 2.02185 7.04101 2.02185H10.2467C10.3862 2.02176 10.5234 2.05843 10.6442 2.12817C10.7651 2.19791 10.8655 2.29825 10.9353 2.41911C11.1442 2.78195 11.4451 3.08334 11.8075 3.29289C12.17 3.50245 12.5813 3.61279 13 3.61279C13.4187 3.61279 13.83 3.50245 14.1925 3.29289C14.5549 3.08334 14.8558 2.78195 15.0647 2.41911C15.1345 2.29825 15.2349 2.19791 15.3558 2.12817C15.4766 2.05843 15.6138 2.02176 15.7533 2.02185H18.959C20.0554 2.02185 20.9453 2.91172 20.9453 4.00818L20.9453 22.2824C20.9453 22.8092 20.736 23.3145 20.3635 23.687C19.991 24.0595 19.4858 24.2687 18.959 24.2687L15.7533 24.2687C15.6139 24.2689 15.4768 24.2324 15.3559 24.1629C15.2351 24.0933 15.1346 23.9932 15.0647 23.8725C14.8558 23.5097 14.5549 23.2083 14.1925 22.9988C13.83 22.7892 13.4187 22.6789 13 22.6789C12.5813 22.6789 12.17 22.7892 11.8075 22.9988C11.4451 23.2083 11.1442 23.5097 10.9353 23.8725C10.8654 23.9932 10.7649 24.0933 10.6441 24.1629C10.5232 24.2324 10.3861 24.2689 10.2467 24.2687H7.04101ZM5.84921 8.3781C5.84921 8.16738 5.93292 7.96529 6.08192 7.81628C6.23093 7.66728 6.43302 7.58357 6.64374 7.58357H7.43827C7.649 7.58357 7.85109 7.66728 8.00009 7.81628C8.1491 7.96529 8.23281 8.16738 8.23281 8.3781C8.23281 8.58883 8.1491 8.79092 8.00009 8.93992C7.85109 9.08893 7.649 9.17264 7.43827 9.17264H6.64374C6.43302 9.17264 6.23093 9.08893 6.08192 8.93992C5.93292 8.79092 5.84921 8.58883 5.84921 8.3781ZM10.6164 7.58357C10.4057 7.58357 10.2036 7.66728 10.0546 7.81628C9.90558 7.96529 9.82187 8.16738 9.82187 8.3781C9.82187 8.58883 9.90558 8.79092 10.0546 8.93992C10.2036 9.08893 10.4057 9.17264 10.6164 9.17264H11.4109C11.6217 9.17264 11.8238 9.08893 11.9728 8.93992C12.1218 8.79092 12.2055 8.58883 12.2055 8.3781C12.2055 8.16738 12.1218 7.96529 11.9728 7.81628C11.8238 7.66728 11.6217 7.58357 11.4109 7.58357H10.6164ZM13.7945 8.3781C13.7945 8.16738 13.8782 7.96529 14.0272 7.81628C14.1762 7.66728 14.3783 7.58357 14.5891 7.58357H15.3836C15.5943 7.58357 15.7964 7.66728 15.9454 7.81628C16.0944 7.96529 16.1781 8.16738 16.1781 8.3781C16.1781 8.58883 16.0944 8.79092 15.9454 8.93992C15.7964 9.08893 15.5943 9.17264 15.3836 9.17264H14.5891C14.3783 9.17264 14.1762 9.08893 14.0272 8.93992C13.8782 8.79092 13.7945 8.58883 13.7945 8.3781ZM18.5617 7.58357C18.351 7.58357 18.1489 7.66728 17.9999 7.81628C17.8509 7.96529 17.7672 8.16738 17.7672 8.3781C17.7672 8.58883 17.8509 8.79092 17.9999 8.93992C18.1489 9.08893 18.351 9.17264 18.5617 9.17264H19.3563C19.567 9.17264 19.7691 9.08893 19.9181 8.93992C20.0671 8.79092 20.1508 8.58883 20.1508 8.3781C20.1508 8.16738 20.0671 7.96529 19.9181 7.81628C19.7691 7.66728 19.567 7.58357 19.3563 7.58357H18.5617ZM13 19.5016C12.7893 19.5016 12.5872 19.4178 12.4382 19.2688C12.2892 19.1198 12.2055 18.9177 12.2055 18.707L12.2055 13.1453C12.2055 12.9346 12.2892 12.7325 12.4382 12.5835C12.5872 12.4345 12.7893 12.3508 13 12.3508C13.2107 12.3508 13.4128 12.4345 13.5618 12.5835C13.7108 12.7325 13.7945 12.9346 13.7945 13.1453V18.707C13.7945 18.9177 13.7108 19.1198 13.5618 19.2688C13.4128 19.4178 13.2107 19.5016 13 19.5016ZM15.3836 18.707C15.3836 18.9177 15.4673 19.1198 15.6163 19.2688C15.7653 19.4178 15.9674 19.5016 16.1781 19.5016C16.3889 19.5016 16.5909 19.4178 16.7399 19.2688C16.889 19.1198 16.9727 18.9177 16.9727 18.707V15.5289C16.9727 15.3182 16.889 15.1161 16.7399 14.9671C16.5909 14.8181 16.3889 14.7344 16.1781 14.7344C15.9674 14.7344 15.7653 14.8181 15.6163 14.9671C15.4673 15.1161 15.3836 15.3182 15.3836 15.5289V18.707Z" fill="#FF5733"/>
</svg>
