<svg width="37" height="37" viewBox="0 0 37 37" fill="none" xmlns="http://www.w3.org/2000/svg">
<path d="M24.1542 4H14.6945C6.05504 4 4 6.05504 4 14.6791V24.1388C4 32.7768 6.03962 34.8333 14.6791 34.8333H24.1388C32.7768 34.8333 34.8333 32.7937 34.8333 24.1542V14.6945C34.8333 6.05504 32.7937 4 24.1542 4ZM28.8918 25.9996H26.6425C25.7915 25.9996 25.5355 25.3105 24.0093 23.7842C22.6773 22.5 22.1146 22.3397 21.777 22.3397C21.3114 22.3397 21.1834 22.4676 21.1834 23.1105V25.1332C21.1834 25.6805 21.0061 26.0011 19.577 26.0011C18.19 25.9079 16.8451 25.4865 15.6528 24.7717C14.4606 24.0569 13.4553 23.069 12.7197 21.8895C10.9732 19.7157 9.75804 17.1645 9.17075 14.4386C9.17075 14.101 9.29871 13.7958 9.94158 13.7958H12.1893C12.7675 13.7958 12.9756 14.0532 13.2022 14.6468C14.2937 17.8596 16.156 20.6531 16.9115 20.6531C17.2013 20.6531 17.3277 20.5251 17.3277 19.8021V16.4937C17.2321 14.9844 16.4305 14.8564 16.4305 14.3107C16.4408 14.1667 16.5067 14.0324 16.6144 13.9363C16.722 13.8402 16.8629 13.7898 17.007 13.7958H20.5405C21.0231 13.7958 21.1834 14.0363 21.1834 14.6144V19.079C21.1834 19.5616 21.3915 19.7219 21.5365 19.7219C21.8263 19.7219 22.0498 19.5616 22.5802 19.0313C23.7192 17.6421 24.6499 16.0945 25.3428 14.4371C25.4137 14.238 25.5477 14.0676 25.7244 13.9518C25.9012 13.836 26.111 13.7812 26.3218 13.7958H28.5711C29.2448 13.7958 29.3882 14.1334 29.2448 14.6144C28.4269 16.4465 27.4149 18.1857 26.2262 19.8021C25.9842 20.1721 25.887 20.3648 26.2262 20.798C26.4498 21.1356 27.2375 21.7939 27.7679 22.4198C28.5386 23.1886 29.1786 24.078 29.6626 25.053C29.8553 25.6789 29.5331 25.9996 28.8918 25.9996Z" fill="#699BF7"/>
</svg>
