<svg width="26" height="25" viewBox="0 0 26 25" fill="none" xmlns="http://www.w3.org/2000/svg">
<path d="M9.96919 21.7092V18.4995C9.96919 17.6802 10.6382 17.016 11.4636 17.016H14.4805C14.8769 17.016 15.257 17.1723 15.5372 17.4505C15.8175 17.7288 15.9749 18.1061 15.9749 18.4995V21.7092C15.9724 22.0498 16.107 22.3773 16.3487 22.6191C16.5905 22.8608 16.9194 22.9968 17.2625 22.9968H19.3208C20.2821 22.9992 21.2049 22.6219 21.8856 21.9479C22.5662 21.274 22.9487 20.3589 22.9487 19.4046V10.2609C22.9487 9.48999 22.6045 8.75877 22.0088 8.26419L15.0069 2.71265C13.7888 1.73927 12.0437 1.7707 10.8621 2.78729L4.01986 8.26419C3.39606 8.74419 3.02323 9.47758 3.00481 10.2609V19.3953C3.00481 21.3843 4.62906 22.9968 6.63268 22.9968H8.64398C9.35665 22.9968 9.93583 22.426 9.94099 21.7185L9.96919 21.7092Z" fill="#FF5733"/>
</svg>
